
<svg version="1.1" id="Layer_1" xmlns="http://www.w3.org/2000/svg" xmlns:xlink="http://www.w3.org/1999/xlink" x="0px" y="0px"
	 viewBox="0 0 512 512" style="enable-background:new 0 0 512 512;" xml:space="preserve" fill="#ffffff">
<g>
	<g>
		<path d="M373.578,37.411L347.925,3.207c-1.351-1.801-3.396-2.95-5.634-3.169c-0.26-0.025-0.519-0.034-0.779-0.034V0H170.489v0.003
			c-0.259,0-0.518,0.009-0.779,0.034c-2.238,0.219-4.283,1.368-5.634,3.169l-25.653,34.205c-2.079,2.773-2.142,6.568-0.155,9.407
			l54.524,77.891c2.65,3.787,6.798,6.31,11.381,6.921c0.726,0.097,1.453,0.145,2.178,0.145c3.853,0,7.632-1.349,10.622-3.839
			l5.838-4.866c0.959,3.963,3.337,7.372,6.576,9.654l-15.367,61.472c-0.138,0.553-0.216,1.118-0.235,1.686l-8.551,265.086
			c-0.071,2.215,0.777,4.361,2.343,5.928l42.756,42.756c1.566,1.565,3.618,2.347,5.669,2.347s4.103-0.782,5.669-2.347l42.756-42.756
			c1.567-1.567,2.415-3.713,2.343-5.928l-8.551-265.086c-0.019-0.568-0.097-1.134-0.235-1.686l-15.367-61.472
			c3.239-2.282,5.617-5.691,6.576-9.654l5.838,4.866c2.99,2.491,6.767,3.839,10.622,3.839c0.725,0,1.453-0.048,2.178-0.145
			c4.582-0.61,8.731-3.134,11.38-6.921l54.524-77.891C375.72,43.98,375.657,40.184,373.578,37.411z M320.62,16.033L256,74.191
			l-64.619-58.157H320.62z M273.637,110.11v9.072c0,0.294-0.241,0.534-0.534,0.534h-34.205c-0.294,0-0.534-0.24-0.534-0.534v-9.072
			L256,95.413L273.637,110.11z M206.707,115.619c-0.048,0.042-0.179,0.15-0.414,0.12c-0.232-0.031-0.33-0.171-0.367-0.223
			l-51.194-73.133l16.908-22.543l72.115,64.904L206.707,115.619z M290.631,458.014L256,492.647l-34.631-34.631l2.498-77.44
			l66.408,66.408L290.631,458.014z M289.519,423.551l-64.945-64.945l0.629-19.452l63.647,63.647L289.519,423.551z M288.094,379.371
			l-62.182-62.183l2.231-69.155l57.572,57.579L288.094,379.371z M284.958,282.179l-56.107-56.114l0.627-19.453l54.811,54.81
			L284.958,282.179z M283.533,237.99l-51.149-51.149l12.773-51.092h21.686l15.376,61.506L283.533,237.99z M306.073,115.515
			c-0.036,0.052-0.135,0.192-0.367,0.223c-0.236,0.029-0.366-0.078-0.414-0.12l-37.05-30.875l72.115-64.904l16.908,22.543
			L306.073,115.515z"/>
	</g>
</g>
<g>
</g>
<g>
</g>
<g>
</g>
<g>
</g>
<g>
</g>
<g>
</g>
<g>
</g>
<g>
</g>
<g>
</g>
<g>
</g>
<g>
</g>
<g>
</g>
<g>
</g>
<g>
</g>
<g>
</g>
</svg>
